<svg width="42" height="32" viewBox="0 0 42 32" fill="none" xmlns="http://www.w3.org/2000/svg">
<path d="M17.7686 1.55469C18.264 1.48372 19.1366 1.44886 20.7861 1.66211C21.6393 1.77241 22.4154 1.81935 23.0273 1.86621C23.677 1.91596 24.1035 1.963 24.4238 2.04688C26.0313 2.46779 27.6374 2.82049 29.0928 3.64648C30.4573 4.42093 31.6444 5.11053 32.5723 5.70605C33.5521 6.33496 34.0723 6.75525 34.2549 6.97656L34.2764 7.00195C35.1322 8.03943 36.5365 9.74241 37.9951 12.4697C38.8092 13.9919 39.5895 15.6749 39.9414 16.7402C40.4397 18.249 40.7431 20.1066 40.2471 22.3145C40.0916 23.0064 39.9785 23.6517 39.8818 24.1416C39.7796 24.6595 39.6881 25.0454 39.5645 25.3848C39.3481 25.9786 38.9919 26.5539 37.9883 27.3145C36.8455 28.1805 35.9098 28.7708 34.8398 29.0195C33.3093 29.3753 32.3033 29.5156 30.7334 29.709C29.328 29.8821 26.8583 30.2028 24.1777 30.3662C21.4977 30.5296 18.6852 30.536 16.3516 30.4248C14.0282 30.3141 12.2797 30.0958 10.4854 29.6514C8.6236 29.1902 6.77151 28.5643 5.76562 28.1045C5.02491 27.7659 4.16867 27.3583 3.42969 26.8281C2.67922 26.2896 2.21434 25.7393 2.04004 25.1865C1.65826 23.9752 1.46612 23.2011 1.50488 21.9307C1.54863 20.4969 1.53258 18.2895 1.80664 16.7715C2.2612 14.2541 2.71883 12.8997 3.80078 11.3398C4.66173 10.0986 6.04729 8.24496 7.67578 6.54492C9.32488 4.82338 11.1472 3.26169 12.126 2.5332C12.4776 2.27152 12.9259 2.11734 13.3828 2.02637C13.6061 2.16951 13.8272 2.22915 13.9902 2.25195C14.1831 2.2789 14.342 2.26294 14.4385 2.24805C14.5007 2.23844 14.5558 2.22527 14.6025 2.21289L14.6035 2.21387C14.9611 2.12075 15.4313 2.03621 16.4062 1.89453L16.4463 1.88867L16.4873 1.87988C16.7571 1.82541 17.0627 1.7225 17.1855 1.68555C17.3511 1.63576 17.5272 1.58929 17.7686 1.55469Z" fill="#A29B47" stroke="#67381B" stroke-width="3" stroke-linecap="round"/>
</svg>
